FILE "CDtoRead.bin" BINARY
REM SESSION 01
   TRACK 01 AUDIO
      INDEX 01 00:00:00
   TRACK 02 AUDIO
      INDEX 01 00:02:70
   TRACK 03 AUDIO
      INDEX 01 00:05:32
   TRACK 04 AUDIO
      INDEX 01 00:07:48
   TRACK 05 AUDIO
      INDEX 01 00:10:33
   TRACK 06 AUDIO
      INDEX 01 00:14:54
   TRACK 07 AUDIO
      INDEX 01 00:17:49
   TRACK 08 AUDIO
      INDEX 01 00:21:23
